PathFileType	4	(X/Y/Z)	C:\Users\Basilio\Documents\Thesis Gigler\squatting_fais\c3dfiles\039\SLS_pre_back4\markers_experimental.trc
DataRate	CameraRate	NumFrames	NumMarkers	Units	OrigDataRate	OrigDataStartFrame	OrigNumFrames
200.000000	200.000000	4	64	mm	200.000000	1066	2133
Frame#	Time	FHD			LBHD			RBHD			C7			T10			CLAV			LSHO			LUUPA			LMUPA			LDUPA			LLEP			LMEP			LRAD			LUL			LRFIN			RSHO			RUPA1			RMUPA			RDUPA			RLEP			RMEP			RRAD			RUL			RUFIN			LASI			RASI			USACR			LSACR			RSACR			LTHI1			LTHI2			LTHI3			LTHI4			LLFC			LMFC			LTIB1			LTIB2			LTIB3			LTIB4			LLMAL			LMMAL			LHEE			LMT1			LMT2			LMT5			RTHI			RTHI2			RTHI3			RTHI4			RLFC			RMFC			RTIB1			RTIB2			RTIB3			RTIB4			RLMAL			RMMAL			RHEE			RMT1			RMT2			RMT5			*61			*62			*63			
		X1	Y1	Z1	X2	Y2	Z2	X3	Y3	Z3	X4	Y4	Z4	X5	Y5	Z5	X6	Y6	Z6	X7	Y7	Z7	X8	Y8	Z8	X9	Y9	Z9	X10	Y10	Z10	X11	Y11	Z11	X12	Y12	Z12	X13	Y13	Z13	X14	Y14	Z14	X15	Y15	Z15	X16	Y16	Z16	X17	Y17	Z17	X18	Y18	Z18	X19	Y19	Z19	X20	Y20	Z20	X21	Y21	Z21	X22	Y22	Z22	X23	Y23	Z23	X24	Y24	Z24	X25	Y25	Z25	X26	Y26	Z26	X27	Y27	Z27	X28	Y28	Z28	X29	Y29	Z29	X30	Y30	Z30	X31	Y31	Z31	X32	Y32	Z32	X33	Y33	Z33	X34	Y34	Z34	X35	Y35	Z35	X36	Y36	Z36	X37	Y37	Z37	X38	Y38	Z38	X39	Y39	Z39	X40	Y40	Z40	X41	Y41	Z41	X42	Y42	Z42	X43	Y43	Z43	X44	Y44	Z44	X45	Y45	Z45	X46	Y46	Z46	X47	Y47	Z47	X48	Y48	Z48	X49	Y49	Z49	X50	Y50	Z50	X51	Y51	Z51	X52	Y52	Z52	X53	Y53	Z53	X54	Y54	Z54	X55	Y55	Z55	X56	Y56	Z56	X57	Y57	Z57	X58	Y58	Z58	X59	Y59	Z59	X60	Y60	Z60	X61	Y61	Z61	X62	Y62	Z62	X63	Y63	Z63	X64	Y64	Z64	

1067	5.33	-129.7475280761719	1568.018920898438	-647.2526855468751	-294.4121093750001	1559.851196289063	-762.9391479492189	-261.8153991699219	1560.518676757813	-625.1067504882814	-356.7483825683594	1406.53955078125	-703.1004638671876	-444.2435302734376	1120.904418945313	-750.1286010742189	nan	nan	nan	-290.5351867675782	1424.950317382813	-853.9588012695315	-135.6692047119141	1390.270141601563	-979.6964111328127	-109.9708938598633	1421.12158203125	-949.8875122070315	-66.54009246826173	1399.7724609375	-984.9102172851565	0.775054454803467	1407.62548828125	-984.5000610351565	6.349203586578371	1335.97265625	-955.0794677734377	281.4548339843751	1434.700439453125	-902.6375732421877	280.8558654785157	1444.644775390625	-978.0933227539065	356.0710449218751	1479.785034179688	-894.2879638671877	-243.6422576904297	1395.852172851563	-556.0834960937501	-86.94212341308595	1330.372192382813	-454.6886291503907	-60.47543716430665	1366.071655273438	-479.6274719238282	-17.91081619262696	1329.517333984375	-455.8147583007814	44.57478332519532	1346.088623046875	-465.1608886718751	52.03401184082033	1280.11572265625	-506.6118164062501	329.6666564941407	1404.10595703125	-544.2839965820314	333.2763671875001	1390.984985351563	-469.8363342285157	407.7407531738282	1450.969970703125	-538.3214111328126	-349.2296142578126	911.4895019531252	-888.0926513671877	-331.8636474609376	900.2996826171877	-666.5703735351564	-503.7292480468751	999.4801025390627	-759.6366577148439	-517.9794311523439	970.0201416015627	-786.815856933594	-513.0874023437501	968.9654541015627	-727.4227905273439	-381.9605712890626	662.0958251953126	-1002.625366210938	-331.6472473144532	595.9846801757814	-1025.760498046875	-285.0229492187501	604.8301391601564	-1019.646301269531	-345.8030700683594	535.0835571289064	-1018.004089355469	-323.7033081054688	455.4353332519532	-1021.481140136719	-290.3157958984376	401.129119873047	-919.8941040039065	-411.6089172363282	353.5607910156251	-990.8377685546877	-468.8091430664064	422.5635375976564	-1003.178100585938	-466.1009826660157	379.0082092285157	-1000.443664550781	-530.5856323242189	359.9868774414063	-944.7957153320315	-711.3225708007814	400.1295471191407	-922.214294433594	-679.4675292968751	368.5825195312501	-846.9653320312502	-706.2088012695314	467.1302185058595	-872.290222167969	-787.002380371094	254.6458587646485	-816.9507446289065	-812.4366455078127	262.9055786132813	-850.5483398437502	-845.3176879882815	319.4888000488282	-879.3688964843752	-275.4674682617188	675.9238891601564	-602.9979858398439	-212.2710266113282	653.1361083984376	-606.0411987304689	-186.5482788085938	675.3192749023439	-611.9080200195314	-189.133773803711	573.1312255859376	-617.0424804687501	-158.6708526611328	461.5034484863282	-657.2924804687501	-135.0884094238282	474.5638732910157	-767.3047485351564	-196.132064819336	272.8649902343751	-714.2772827148439	-298.7958679199219	243.0856018066407	-702.9851684570314	-259.8934631347657	219.8523864746094	-714.3936157226564	-265.2115783691407	175.2104187011719	-755.4928588867189	-362.0811157226563	113.2446594238282	-740.5505981445314	-333.4327087402344	135.5339965820313	-824.6807861328127	-439.8740234375001	97.96449279785159	-793.236755371094	-214.1368408203126	53.75131988525392	-807.2415161132815	-218.1197204589844	55.35809707641603	-761.3341674804689	-273.4512634277344	36.44483184814454	-710.1026000976564	nan	nan	nan	nan	nan	nan	nan	nan	nan	
1068	5.335	-129.5252990722657	1567.31787109375	-647.1589965820314	-294.3312683105469	1559.102294921875	-762.6488037109376	-261.4624633789063	1559.8037109375	-624.8244628906251	-356.3678588867188	1405.638671875	-703.0007934570314	-444.4068603515626	1120.259033203125	-750.1303100585939	nan	nan	nan	-290.1243591308594	1424.162475585938	-853.7590942382815	-135.3897705078125	1389.606811523438	-979.659118652344	-109.4467163085938	1420.079956054688	-949.8718261718752	-66.20642852783205	1399.135375976563	-984.9903564453127	1.138201117515564	1406.980590820313	-984.4205322265627	6.60300922393799	1335.269775390625	-955.1514892578127	281.7046813964844	1434.139526367188	-902.959411621094	280.8104248046876	1444.226806640625	-978.2783203125002	356.4684143066407	1479.141479492188	-894.485290527344	-243.2517852783204	1395.065551757813	-555.9479980468751	-86.53225708007814	1329.338989257813	-454.6148071289064	-60.08943557739259	1365.031982421875	-479.513641357422	-17.50357055664063	1328.6865234375	-455.785125732422	45.0522689819336	1345.421508789063	-465.1859436035157	52.51914596557619	1279.2158203125	-506.5870666503907	330.1229553222657	1403.425048828125	-544.3652954101564	333.5864257812501	1390.487915039063	-469.7098083496095	408.0764465332032	1450.203979492188	-538.3056030273439	-349.3266296386719	910.7821044921877	-887.9062500000002	-332.2691040039063	899.8129882812502	-666.3177490234376	-503.8702392578126	999.3228759765627	-759.5083618164064	-518.2053222656251	969.4564208984377	-786.6976318359377	-513.3601684570314	968.5755004882815	-727.4242553710939	-382.4044494628907	661.2841186523439	-1002.796020507813	-332.0565795898438	595.6264648437501	-1025.995239257813	-285.4991455078126	604.3580322265626	-1019.913513183594	-346.3014526367188	534.7631835937501	-1018.396301269531	-324.0811767578126	455.116912841797	-1021.936401367188	-290.5798950195313	400.760711669922	-920.2531738281252	-412.0325927734376	353.3070373535157	-991.5191650390627	-469.2713623046876	422.3190917968751	-1003.453491210938	-466.587615966797	378.6672363281251	-1000.921875	-530.8930053710939	359.6168518066407	-944.938171386719	-711.4031372070314	399.6138000488282	-922.0526123046877	-679.3924560546876	367.2259826660157	-847.1853027343752	-706.2637329101564	466.6779174804689	-872.1593017578127	-787.154479980469	254.1114349365235	-816.787048339844	-812.5607910156252	262.8479919433594	-850.7698974609377	-845.430847167969	319.1892395019532	-879.1939086914065	-275.6977539062501	675.6056518554689	-602.6105957031251	-212.2344207763672	653.3873901367189	-604.8687744140626	-187.0013732910157	675.0345458984376	-611.1810913085939	-189.2876434326172	572.8955078125001	-616.5039062500001	-158.6854095458985	461.294403076172	-656.9603881835939	-135.1295776367188	474.5119018554689	-766.8269042968751	-196.0222473144532	272.7763061523438	-714.0263671875001	-298.7921752929688	243.0091857910157	-702.7579345703126	-259.8777465820313	219.8440093994141	-714.1540527343751	-265.1958618164063	175.1917572021485	-755.3037109375001	-362.0791625976563	113.21630859375	-740.4912109375001	-333.3608703613282	135.7152557373047	-824.5012817382815	-439.8181152343751	97.9684753417969	-793.1607666015627	-214.1163787841797	53.77933502197267	-807.2153320312502	-218.118148803711	55.30869674682619	-761.3240966796876	-273.4364929199219	36.40034103393555	-710.1101074218751	nan	nan	nan	nan	nan	nan	nan	nan	nan	
1069	5.34	-129.101547241211	1566.846435546875	-647.0566406250001	-293.8069152832032	1558.214111328125	-762.4869995117189	-261.0942077636719	1558.837768554688	-624.4846191406251	-356.0926818847657	1404.987915039063	-702.7660522460939	-444.3837890625001	1119.66650390625	-750.0798950195314	nan	nan	nan	-289.3110656738282	1423.454467773438	-853.4909667968752	-135.0347747802735	1388.965698242188	-979.614196777344	-109.0987014770508	1419.466186523438	-949.8343505859377	-65.82415771484376	1398.4619140625	-984.9781494140627	1.494421124458313	1406.468872070313	-984.3819580078127	6.930174350738527	1334.834106445313	-955.2491455078127	282.1127014160157	1433.18603515625	-903.1335449218752	281.1345825195313	1443.579956054688	-978.5046997070315	357.0811767578126	1478.20361328125	-894.5820312500002	-242.9131011962891	1394.364624023438	-555.8328857421876	-86.46897125244142	1328.174194335938	-454.7544555664064	-59.98694992065431	1364.077758789063	-479.5724182128907	-17.10821723937989	1327.632568359375	-455.8427734375001	45.59899902343751	1344.371826171875	-465.3587036132814	52.92792892456056	1278.603271484375	-506.433563232422	330.3956298828126	1402.666015625	-544.4467773437501	334.0587158203126	1389.523193359375	-469.8150024414064	408.4800109863282	1449.65625	-538.5078735351564	-349.5609436035157	910.0942993164065	-887.5676879882815	-332.7083740234376	899.3232421875002	-666.1430664062501	-503.933563232422	998.559020996094	-759.4279785156251	-518.3433837890626	969.1398925781252	-786.5722656250002	-513.5911865234376	967.8333129882815	-727.1974487304689	-382.6665039062501	660.8199462890626	-1002.8359375	-332.4204101562501	595.2863769531251	-1026.244506835938	-285.5694885253907	603.5478515625001	-1020.177856445313	-346.6426086425782	534.4601440429689	-1018.728271484375	-324.4749145507813	454.8281555175782	-1022.314880371094	-290.8188171386719	400.6204833984376	-920.8619384765627	-412.4013977050782	352.8710021972657	-991.8602294921877	-469.6199340820314	421.9224853515626	-1003.78369140625	-466.4228515625001	378.1145629882813	-1001.061706542969	-531.2060546875001	359.3038940429688	-945.1835937500002	-711.5233764648439	399.040008544922	-922.056579589844	-679.4578247070314	366.8204040527344	-847.410339355469	-706.4106445312501	466.2607727050782	-872.0193481445315	-787.008972167969	253.5195312500001	-816.007995605469	-812.7705688476565	262.2908630371094	-850.6702270507815	-845.6052856445315	318.8691101074219	-879.0502929687502	-276.0085449218751	675.1309204101564	-602.3231201171876	-212.4237213134766	653.0696411132814	-604.4937744140626	-187.429672241211	674.7679443359376	-610.6200561523439	-189.4131927490235	572.6419067382814	-616.1071777343751	-158.5962219238282	461.0957946777345	-656.5312500000001	-135.1453857421875	474.4217529296876	-766.2755126953126	-195.9202117919922	272.6109619140626	-713.6393432617189	-298.7885742187501	243.0358123779297	-702.4805908203126	-259.8096313476563	219.8515777587891	-713.9002685546876	-265.1618041992188	175.1719970703125	-755.1518554687501	-361.8838195800782	112.7733840942383	-740.3981933593751	-333.4870605468751	135.7428741455078	-824.409851074219	-439.7928161621095	97.97360992431643	-793.1419677734377	-214.1386718750001	53.8160972595215	-807.2622070312502	-218.1055908203126	55.36772537231447	-761.2915649414064	-273.4952697753907	36.34268951416016	-710.0873413085939	nan	nan	nan	nan	nan	nan	nan	nan	nan	
1070	5.345	-129.0646209716797	1565.840942382813	-647.1018066406251	-293.6519470214844	1557.396118164063	-762.1465454101564	-260.7976379394532	1558.1220703125	-624.3063354492189	-355.7854309082032	1404.2109375	-702.4771728515626	-443.9799194335939	1119.17041015625	-749.9754028320314	nan	nan	nan	-288.8747558593751	1422.831909179688	-853.351501464844	-134.6875915527344	1388.40283203125	-979.5398559570315	-108.8331298828125	1419.161376953125	-949.8400878906252	-65.50998687744142	1397.834594726563	-984.8702392578127	1.878407955169678	1405.735961914063	-984.4971923828127	7.287628173828127	1334.290161132813	-955.2590942382815	282.4325561523438	1432.437622070313	-903.3384399414065	281.4559020996094	1442.883911132813	-978.7183837890627	357.2679138183594	1477.671142578125	-894.8800048828127	-242.5594329833985	1393.400146484375	-555.5935058593751	-85.8070526123047	1327.269165039063	-454.8593139648439	-59.69170379638673	1363.30908203125	-479.5017395019532	-16.62511253356934	1326.708740234375	-455.6561889648439	45.87104415893555	1343.70166015625	-464.9922790527345	53.52136611938478	1277.948486328125	-506.5180969238282	330.9192810058594	1402.007446289063	-544.4557495117189	334.5541076660157	1388.777099609375	-469.7434082031251	408.8978576660157	1448.931884765625	-538.4710693359376	-349.8348999023438	909.3522949218752	-887.3159790039065	-332.9602966308594	898.9167480468752	-665.9506225585939	-504.2175292968751	997.9607543945315	-759.2969360351564	-518.3845214843751	968.241394042969	-786.4829711914065	-513.6986694335939	967.4143066406252	-727.1477050781251	-382.7621765136719	660.6334838867189	-1002.837768554688	-332.8597106933594	594.9212646484376	-1026.521484375	-285.8631896972657	603.2089843750001	-1020.4658203125	-346.9941101074219	534.1646118164064	-1019.03955078125	-324.8870849609376	454.3896484375001	-1022.769409179688	-291.1082763671876	400.020477294922	-921.544616699219	-412.6924133300782	352.2671508789063	-992.2408447265627	-469.8496398925782	421.4190979003907	-1004.010559082031	-466.8633728027345	378.1873779296876	-1001.359802246094	-531.5275268554689	358.9353942871094	-945.5037841796877	-711.6779174804689	398.5984802246095	-922.0605468750002	-679.5644531250001	366.4462280273438	-847.2985839843752	-706.4059448242189	465.7906494140626	-871.9309082031252	-787.1555786132815	253.0930328369141	-815.8184204101565	-813.0144042968752	261.8983154296876	-850.533874511719	-845.811950683594	318.4718933105469	-878.811706542969	-276.3883056640626	674.5828857421876	-601.7255249023439	-212.6426849365235	652.8781738281251	-604.0802001953126	-187.7097473144532	674.5357055664064	-610.2567749023439	-189.5279235839844	572.4321899414064	-615.6613769531251	-158.5276031494141	460.8404846191407	-656.1102905273439	-135.0310363769532	474.3676147460939	-765.7998046875001	-195.8894500732422	272.5758056640626	-713.3392333984376	-298.7080688476563	242.8215484619141	-702.1525878906251	-259.7690734863282	219.7509460449219	-713.6940307617189	-265.1477050781251	175.0808868408203	-754.9161376953126	-361.8114624023438	112.7259521484375	-740.2357788085939	-333.4220581054688	135.7663879394532	-824.3187255859377	-439.7844543457032	97.96416473388675	-793.1137695312502	-214.1320190429688	53.83784866333009	-807.2270507812502	-218.1286621093751	55.26706695556642	-761.3716430664064	-273.4352416992188	36.35205841064454	-710.0737304687501	nan	nan	nan	nan	nan	nan	nan	nan	nan	
